<svg width="100" height="100" viewBox="0 0 100 100" fill="none" xmlns="http://www.w3.org/2000/svg">
<path d="M33.7304 43.024C34.4984 43.792 35.1864 44.832 35.7944 46.144C36.4024 47.456 36.7064 48.56 36.7064 49.456C36.7064 50.352 36.4664 51.712 35.9864 53.536C35.5384 55.328 34.9784 56.816 34.3064 58C33.2184 59.92 31.5064 61.52 29.1704 62.8C26.8344 64.08 24.4664 64.72 22.0664 64.72C19.5704 64.72 17.4584 64.08 15.7304 62.8C14.0344 61.52 13.1224 59.84 12.9944 57.76C13.5384 55.616 14.4664 53.328 15.7784 50.896C17.1224 48.432 18.7064 46.08 20.5304 43.84C22.0984 44.064 23.7624 44.464 25.5224 45.04L23.4104 51.04C22.4824 50.656 21.3944 50.304 20.1464 49.984C19.0904 51.104 17.9384 52.512 16.6904 54.208C17.5224 55.232 18.5944 56.032 19.9064 56.608C21.2504 57.152 22.7224 57.424 24.3224 57.424C26.0504 57.424 27.6824 57.152 29.2184 56.608C30.7544 56.064 32.0664 55.312 33.1544 54.352C32.3544 52.24 30.8504 50.288 28.6424 48.496L33.7304 43.024ZM49.069 57.184L47.005 62.8L45.997 63.664L41.389 64.144C41.357 61.008 41.197 57.184 40.909 52.672C40.653 48.128 40.365 44.096 40.045 40.576C40.941 39.488 41.949 38.448 43.069 37.456C44.189 36.464 45.197 35.728 46.093 35.248C46.253 35.888 46.333 36.896 46.333 38.272C46.365 40.736 46.205 44.048 45.853 48.208C45.501 52.336 45.181 55.2 44.893 56.8L48.781 56.368L49.069 57.184ZM48.784 56.704L66.16 54.88L66.448 55.696L64.384 61.312L63.376 62.176L46 64L48.784 56.704ZM86.5758 44.24C85.9998 49.552 84.4318 55.072 81.8718 60.8L69.4878 62.096C69.1038 63.984 68.7518 66.384 68.4318 69.296L66.9918 69.248L67.2318 67.088C67.3278 65.744 67.5038 64.128 67.7598 62.24L63.3438 62.72L66.1278 55.424L69.4398 55.04C70.7838 51.232 72.6238 48.32 74.9598 46.304C77.2958 44.288 79.8878 43.28 82.7358 43.28C83.5998 43.28 84.3678 43.376 85.0398 43.568C85.7118 43.728 86.2238 43.952 86.5758 44.24ZM78.9918 50.576C77.3918 50.576 75.9678 50.944 74.7198 51.68C73.4718 52.416 72.4638 53.456 71.6958 54.8L80.7678 53.792C80.9278 53.056 81.0878 52.08 81.2478 50.864C80.5758 50.672 79.8238 50.576 78.9918 50.576Z" fill="#2270E0"/>
</svg>
