<svg width="74" height="34" viewBox="0 0 74 34" fill="none" xmlns="http://www.w3.org/2000/svg">
<g clip-path="url(#clip0_1201_31)">
<path d="M20.736 7.776C21.504 8.544 22.192 9.584 22.8 10.896C23.408 12.208 23.712 13.312 23.712 14.208C23.712 15.104 23.472 16.464 22.992 18.288C22.544 20.08 21.984 21.568 21.312 22.752C20.224 24.672 18.512 26.272 16.176 27.552C13.84 28.832 11.472 29.472 9.072 29.472C6.576 29.472 4.464 28.832 2.736 27.552C1.04 26.272 0.128 24.592 0 22.512C0.544 20.368 1.472 18.08 2.784 15.648C4.128 13.184 5.712 10.832 7.536 8.592C9.104 8.816 10.768 9.216 12.528 9.792L10.416 15.792C9.488 15.408 8.4 15.056 7.152 14.736C6.096 15.856 4.944 17.264 3.696 18.96C4.528 19.984 5.6 20.784 6.912 21.36C8.256 21.904 9.728 22.176 11.328 22.176C13.056 22.176 14.688 21.904 16.224 21.36C17.76 20.816 19.072 20.064 20.16 19.104C19.36 16.992 17.856 15.04 15.648 13.248L20.736 7.776Z" fill="#111111"/>
<path d="M36.0746 21.936L34.0106 27.552L33.0026 28.416L28.3946 28.896C28.3626 25.76 28.2026 21.936 27.9146 17.424C27.6586 12.88 27.3706 8.848 27.0506 5.328C27.9466 4.24 28.9546 3.2 30.0746 2.208C31.1946 1.216 32.2026 0.48 33.0986 0C33.2586 0.639999 33.3386 1.648 33.3386 3.024C33.3706 5.488 33.2106 8.8 32.8586 12.96C32.5066 17.088 32.1866 19.952 31.8986 21.552L35.7866 21.12L36.0746 21.936Z" fill="#111111"/>
<path d="M35.7896 20.456L53.1656 18.632L53.4536 19.448L51.3896 25.064L50.3816 25.928L33.0056 27.752L35.7896 20.456Z" fill="#111111"/>
<path d="M73.5814 7.992C73.0054 13.304 71.4374 18.824 68.8774 24.552L56.4934 25.848C56.1094 27.736 55.7574 30.136 55.4374 33.048L53.9974 33L54.2374 30.84C54.3334 29.496 54.5094 27.88 54.7654 25.992L50.3494 26.472L53.1334 19.176L56.4454 18.792C57.7894 14.984 59.6294 12.072 61.9654 10.056C64.3014 8.04 66.8934 7.032 69.7414 7.032C70.6054 7.032 71.3734 7.128 72.0454 7.32C72.7174 7.48 73.2294 7.704 73.5814 7.992ZM65.9974 14.328C64.3974 14.328 62.9734 14.696 61.7254 15.432C60.4774 16.168 59.4694 17.208 58.7014 18.552L67.7734 17.544C67.9334 16.808 68.0934 15.832 68.2534 14.616C67.5814 14.424 66.8294 14.328 65.9974 14.328Z" fill="#111111"/>
</g>
<defs>
<clipPath id="clip0_1201_31">
<rect width="73.595" height="33.05" fill="white"/>
</clipPath>
</defs>
</svg>
