<svg width="1080" height="1080" viewBox="0 0 1080 1080" fill="none" xmlns="http://www.w3.org/2000/svg">
<path d="M518.926 319.444C521.819 331.006 522.802 346.65 522.806 364.564C523.218 397.316 521.09 440.579 516.564 494.007V494.016L516.563 494.024C513.934 524.824 511.412 550.522 508.986 570.925L524.168 569.24L545.465 566.876L546.974 571.147L746.819 550.194L767.998 547.974L768.093 548.243L772.16 547.772C789.962 503.303 813.86 467.088 844.661 440.536C879.03 410.909 918.351 395.316 961.84 395.316C974.622 395.316 986.826 396.707 998.164 399.873C1008.68 402.429 1019.37 406.56 1028.09 413.687L1039.42 422.951L1037.84 437.507C1030.12 508.677 1009.15 582 975.424 657.384L969.067 671.592L953.586 673.21L815.092 687.687C811.737 707.345 808.55 730.736 805.556 757.952L802.82 782.817L777.819 781.985L759.384 781.371L730.223 780.4L733.448 751.401L736.466 724.268C737.108 715.41 738.001 705.748 739.143 695.291L716.495 697.751L672.603 702.517L672.874 701.805L494.358 720.523L450.631 725.108L452.355 720.593L435.307 722.367L405.816 725.436L405.514 695.788C405.111 656.327 403.09 607.94 399.422 550.534L399.416 550.434L399.41 550.332C398.958 542.314 398.496 534.424 398.028 526.661C396.357 538.345 393.394 551.77 389.509 566.536C383.381 590.985 375.456 612.428 365.322 630.267L365.323 630.268C348.448 660.014 322.439 683.736 289.051 702.01C255.615 720.31 220.878 729.878 185.142 729.878C148.372 729.878 115.459 720.371 87.9678 700.03L87.8701 699.958L87.7734 699.885C59.9064 678.877 44.1861 650.194 42.0508 615.536L41.791 611.321L42.8311 607.229C50.4581 577.203 63.2829 545.861 80.8848 513.271L80.9141 513.216L80.9443 513.161C98.9682 480.155 120.182 448.703 144.55 418.812L154.188 406.987L169.291 409.143C191.152 412.262 213.994 417.779 237.774 425.553L264.032 434.137L254.851 460.19L248.529 478.125L249.565 477.014L314.703 407.04L333.759 386.569L353.547 406.334C366.229 419.002 376.678 435.211 385.382 453.971C389.244 462.296 392.511 470.59 394.935 478.756C392.889 449.241 390.717 421.851 388.417 396.58L387.411 385.523L394.474 376.957C406.897 361.889 420.796 347.578 436.129 334.013C451.376 320.524 466.028 309.668 479.995 302.194L510.521 285.859L518.926 319.444ZM227.812 536.916L218.349 563.771L192.034 552.896C185.408 550.157 177.877 547.492 169.402 544.923C163.992 551.158 158.339 558.024 152.439 565.534C157.07 568.801 162.232 571.713 167.978 574.259C181.558 579.691 196.803 582.579 214.022 582.579C233.264 582.579 251.096 579.563 267.697 573.69C277.124 570.356 285.57 566.381 293.118 561.819C284.031 546.452 270.679 531.264 252.325 516.385L238.887 505.49L227.812 536.916Z" fill="#28AD4E" stroke="black" stroke-width="54"/>
</svg>
