<svg width="98" height="77" viewBox="0 0 98 77" fill="none" xmlns="http://www.w3.org/2000/svg">
<path d="M32.7304 31.024C33.4984 31.792 34.1864 32.832 34.7944 34.144C35.4024 35.456 35.7064 36.56 35.7064 37.456C35.7064 38.352 35.4664 39.712 34.9864 41.536C34.5384 43.328 33.9784 44.816 33.3064 46C32.2184 47.92 30.5064 49.52 28.1704 50.8C25.8344 52.08 23.4664 52.72 21.0664 52.72C18.5704 52.72 16.4584 52.08 14.7304 50.8C13.0344 49.52 12.1224 47.84 11.9944 45.76C12.5384 43.616 13.4664 41.328 14.7784 38.896C16.1224 36.432 17.7064 34.08 19.5304 31.84C21.0984 32.064 22.7624 32.464 24.5224 33.04L22.4104 39.04C21.4824 38.656 20.3944 38.304 19.1464 37.984C18.0904 39.104 16.9384 40.512 15.6904 42.208C16.5224 43.232 17.5944 44.032 18.9064 44.608C20.2504 45.152 21.7224 45.424 23.3224 45.424C25.0504 45.424 26.6824 45.152 28.2184 44.608C29.7544 44.064 31.0664 43.312 32.1544 42.352C31.3544 40.24 29.8504 38.288 27.6424 36.496L32.7304 31.024ZM48.069 45.184L46.005 50.8L44.997 51.664L40.389 52.144C40.357 49.008 40.197 45.184 39.909 40.672C39.653 36.128 39.365 32.096 39.045 28.576C39.941 27.488 40.949 26.448 42.069 25.456C43.189 24.464 44.197 23.728 45.093 23.248C45.253 23.888 45.333 24.896 45.333 26.272C45.365 28.736 45.205 32.048 44.853 36.208C44.501 40.336 44.181 43.2 43.893 44.8L47.781 44.368L48.069 45.184ZM47.784 44.704L65.16 42.88L65.448 43.696L63.384 49.312L62.376 50.176L45 52L47.784 44.704ZM85.5758 32.24C84.9998 37.552 83.4318 43.072 80.8718 48.8L68.4878 50.096C68.1038 51.984 67.7518 54.384 67.4318 57.296L65.9918 57.248L66.2318 55.088C66.3278 53.744 66.5038 52.128 66.7598 50.24L62.3438 50.72L65.1278 43.424L68.4398 43.04C69.7838 39.232 71.6238 36.32 73.9598 34.304C76.2958 32.288 78.8878 31.28 81.7358 31.28C82.5998 31.28 83.3678 31.376 84.0398 31.568C84.7118 31.728 85.2238 31.952 85.5758 32.24ZM77.9918 38.576C76.3918 38.576 74.9678 38.944 73.7198 39.68C72.4718 40.416 71.4638 41.456 70.6958 42.8L79.7678 41.792C79.9278 41.056 80.0878 40.08 80.2478 38.864C79.5758 38.672 78.8238 38.576 77.9918 38.576Z" fill="#111111"/>
</svg>
